<svg width="16" height="9" viewBox="0 0 16 9" fill="none" xmlns="http://www.w3.org/2000/svg">
<path d="M0.32814 8.45787C0.00145994 8.13119 0.00145994 7.60154 0.32814 7.27486L6.89422 0.708776C7.2209 0.382096 7.75056 0.382096 8.07724 0.708776C8.40392 1.03546 8.40392 1.56511 8.07724 1.89179L1.51115 8.45787C1.18447 8.78455 0.65482 8.78455 0.32814 8.45787Z" fill="#6C9751"/>
<path d="M14.7694 8.45787C15.096 8.13119 15.096 7.60154 14.7694 7.27486L8.20327 0.708776C7.87659 0.382096 7.34694 0.382096 7.02026 0.708776C6.69358 1.03546 6.69358 1.56511 7.02026 1.89179L13.5863 8.45787C13.913 8.78455 14.4427 8.78455 14.7694 8.45787Z" fill="#6C9751"/>
</svg>
