<svg width="32" height="33" viewBox="0 0 32 33" fill="none" xmlns="http://www.w3.org/2000/svg">
<g clip-path="url(#clip0_152_2813)">
<path d="M19.6187 7.16609C20.8488 6.1724 21.1273 5.11015 21.1443 4.39396C21.1856 2.65165 19.8098 1.37664 19.6528 1.23708C19.2638 0.89108 18.6679 0.925955 18.3218 1.31502C17.9758 1.70408 18.0107 2.2999 18.3998 2.64596C18.4086 2.65383 19.2802 3.46934 19.2593 4.34928C19.2482 4.81809 18.9782 5.25972 18.4339 5.6994C17.2038 6.69309 16.9253 7.75535 16.9083 8.47153C16.8669 10.2139 18.2428 11.4889 18.3998 11.6285C18.5798 11.7886 18.8046 11.8675 19.0284 11.8675C19.2881 11.8675 19.5467 11.7612 19.7326 11.5522C20.0786 11.1631 20.0456 10.5689 19.6565 10.2229C19.4091 9.99791 18.7717 9.25147 18.7934 8.50916C18.8071 8.04297 19.077 7.6036 19.6187 7.16609Z" fill="#C1B19D"/>
<path d="M13.6429 7.16609C14.8731 6.1724 15.1516 5.11015 15.1685 4.39396C15.2099 2.65165 13.8341 1.37664 13.677 1.23708C13.2881 0.89108 12.6921 0.925955 12.3461 1.31502C12.0001 1.70408 12.0349 2.2999 12.424 2.64596C12.4328 2.65383 13.3044 3.46934 13.2836 4.34928C13.2724 4.81809 13.0024 5.25972 12.4581 5.6994C11.228 6.69309 10.9495 7.75535 10.9326 8.47153C10.8912 10.2139 12.267 11.4889 12.424 11.6285C12.6041 11.7886 12.8288 11.8675 13.0526 11.8675C13.3124 11.8675 13.5709 11.7612 13.7568 11.5522C14.1028 11.1631 14.0698 10.5689 13.6807 10.2229C13.4333 9.99791 12.7959 9.25147 12.8176 8.50916C12.8313 8.04297 13.1012 7.6036 13.6429 7.16609Z" fill="#C1B19D"/>
<path d="M27.1305 16.3829H26.0148V15.6915C26.0148 15.1709 25.5927 14.7488 25.072 14.7488H1.01111C0.490485 14.7488 0.0683594 15.1708 0.0683594 15.6915V20.667C0.0683594 25.0635 2.5018 28.9293 6.15518 31.1132H1.01167C0.491048 31.1132 0.0689219 31.5352 0.0689219 32.0559C0.0689219 32.5766 0.490923 32.9987 1.01167 32.9987H25.0721C25.5927 32.9987 26.0149 32.5766 26.0149 32.0559C26.0149 31.5352 25.5928 31.1132 25.0721 31.1132H19.928C22.0055 29.8713 23.6885 28.0857 24.7537 25.9676H27.1306C29.7731 25.9676 31.923 23.8177 31.923 21.1752C31.923 18.5327 29.773 16.3829 27.1305 16.3829ZM24.1293 20.667C24.1293 26.4271 19.1553 31.1132 13.0416 31.1132C6.92781 31.1132 1.95386 26.4271 1.95386 20.667V16.6343H24.1293V20.667H24.1293ZM27.1305 24.0822H25.5083C25.8377 22.9972 26.0148 21.8514 26.0148 20.667V18.2683H27.1305C28.7334 18.2683 30.0375 19.5724 30.0375 21.1752C30.0375 22.7781 28.7334 24.0822 27.1305 24.0822Z" fill="#C1B19D"/>
<path d="M7.65465 7.16609C8.88478 6.1724 9.16328 5.11015 9.18022 4.39396C9.22159 2.65165 7.84578 1.37664 7.68871 1.23708C7.29971 0.89108 6.70384 0.925955 6.35777 1.31502C6.01177 1.70402 6.04665 2.2999 6.43571 2.64596C6.44452 2.65383 7.31615 3.46934 7.29528 4.34927C7.28415 4.81809 7.01415 5.25971 6.46984 5.6994C5.23971 6.69309 4.96121 7.75534 4.94427 8.47153C4.90296 10.2138 6.27877 11.4888 6.43577 11.6284C6.6154 11.7882 6.83909 11.8667 7.06196 11.8667C7.32178 11.8667 7.58046 11.7599 7.76678 11.5505C8.11278 11.1614 8.0779 10.5656 7.68884 10.2195C7.68003 10.2117 6.8084 9.39616 6.82927 8.51622C6.84027 8.04741 7.11028 7.60572 7.65465 7.16609Z" fill="#C1B19D"/>
</g>
<defs>
<clipPath id="clip0_152_2813">
<rect width="32" height="32" fill="white" transform="translate(0 0.998779)"/>
</clipPath>
</defs>
</svg>
