<svg width="19" height="33" viewBox="0 0 19 33" fill="none" xmlns="http://www.w3.org/2000/svg">
<path d="M11.037 24.3157V29.2574C11.037 30.2876 10.2019 31.1227 9.17168 31.1227C8.14147 31.1227 7.3063 30.2876 7.3063 29.2574V24.3157" stroke="#C1B19D" stroke-width="1.87607" stroke-miterlimit="10" stroke-linecap="round" stroke-linejoin="round"/>
<path d="M17.3437 24.3156H1.00006V9.17055C1.00006 4.65742 4.6587 0.998779 9.17183 0.998779C13.685 0.998779 17.3436 4.65742 17.3436 9.17055L17.3437 24.3156Z" stroke="#C1B19D" stroke-width="1.87607" stroke-miterlimit="10" stroke-linecap="round" stroke-linejoin="round"/>
<path d="M17.3435 10.5793C17.3435 9.45102 16.4288 8.53638 15.3006 8.53638C14.1723 8.53638 13.2577 9.45102 13.2577 10.5793M13.2577 10.5793H13.2575M13.2577 10.5793V12.0804C13.2577 13.2087 12.343 14.1233 11.2147 14.1233C10.0865 14.1233 9.17183 13.2087 9.17183 12.0804V10.5793C9.17183 9.45102 8.25719 8.53638 7.12892 8.53638C6.00065 8.53638 5.08601 9.45102 5.08601 10.5793H5.08588V14.0893C5.08588 15.2176 4.17124 16.1322 3.04297 16.1322C1.91471 16.1322 1.00006 15.2176 1.00006 14.0893" stroke="#C1B19D" stroke-width="1.87607" stroke-miterlimit="10" stroke-linecap="round" stroke-linejoin="round"/>
</svg>
