<svg width="163" height="55" viewBox="0 0 163 55" fill="none" xmlns="http://www.w3.org/2000/svg">
<path d="M23.3249 28.9664C23.6524 29.9907 24.0284 30.7363 24.4529 31.2033C24.8775 31.6552 25.2838 31.8962 25.6719 31.9263V32.8527H14.3552V31.9263C15.3013 31.8661 15.9684 31.723 16.3565 31.497C16.7568 31.256 16.9569 30.8418 16.9569 30.2543C16.9569 29.697 16.8114 28.9589 16.5203 28.04L14.2824 20.4482H6.14962L5.18533 23.6341C4.49395 25.8634 4.14827 27.5806 4.14827 28.7857C4.14827 29.9305 4.42724 30.7288 4.9852 31.1807C5.54315 31.6175 6.36795 31.8661 7.4596 31.9263V32.8527H0V31.9263C1.22507 31.6552 2.29246 30.0359 3.20217 27.0685L11.6988 0H14.2824L23.3249 28.9664ZM14.0095 19.5218L10.3343 7.02696L6.45892 19.5218H14.0095Z" fill="#1D1D1D"/>
<path d="M62.3841 1.01676C61.535 1.07701 60.9225 1.20505 60.5465 1.40087C60.1826 1.58163 59.9279 1.93561 59.7823 2.46282C59.6489 2.97497 59.5822 3.81851 59.5822 4.99343V27.9497C59.5822 29.1246 59.6489 29.9757 59.7823 30.5029C59.9279 31.015 60.1826 31.369 60.5465 31.5648C60.9225 31.7456 61.535 31.8661 62.3841 31.9263V32.8527H50.8672V31.9263C51.692 31.8661 52.2924 31.7456 52.6684 31.5648C53.0566 31.369 53.3173 31.015 53.4508 30.5029C53.5963 29.9757 53.6691 29.1246 53.6691 27.9497V16.8331H43.7897V27.9497C43.7897 29.1246 43.8564 29.9757 43.9898 30.5029C44.1232 31.015 44.378 31.369 44.754 31.5648C45.13 31.7456 45.7365 31.8661 46.5734 31.9263V32.8527H35.0747V31.9263C35.8874 31.8661 36.4878 31.7456 36.8759 31.5648C37.264 31.369 37.5248 31.015 37.6582 30.5029C37.7917 29.9757 37.8584 29.1246 37.8584 27.9497V4.99343C37.8584 3.81851 37.7917 2.97497 37.6582 2.46282C37.5248 1.93561 37.264 1.58163 36.8759 1.40087C36.4878 1.20505 35.8874 1.07701 35.0747 1.01676V0.0903789H46.5734V1.01676C45.7365 1.07701 45.13 1.20505 44.754 1.40087C44.378 1.58163 44.1232 1.93561 43.9898 2.46282C43.8564 2.97497 43.7897 3.81851 43.7897 4.99343V15.9067H53.6691V4.99343C53.6691 3.81851 53.5963 2.97497 53.4508 2.46282C53.3173 1.93561 53.0566 1.58163 52.6684 1.40087C52.2924 1.20505 51.692 1.07701 50.8672 1.01676V0.0903789H62.3841V1.01676Z" fill="#1D1D1D"/>
<path d="M95.9123 0.0903789C95.7303 3.02769 95.6394 5.64868 95.6394 7.95334C95.6394 9.3994 95.6818 10.5743 95.7667 11.4781H94.9116C94.3051 7.6822 93.4864 5.01603 92.4554 3.47959C91.4244 1.92808 90.0174 1.15233 88.2343 1.15233H87.3792V27.5881C87.3792 28.8836 87.4823 29.825 87.6885 30.4125C87.9069 30.9849 88.2829 31.3765 88.8166 31.5874C89.3503 31.7832 90.1993 31.8962 91.3637 31.9263V32.8527H77.4634V31.9263C78.6278 31.8962 79.4769 31.7832 80.0106 31.5874C80.5443 31.3765 80.9142 30.9849 81.1204 30.4125C81.3388 29.825 81.4479 28.8836 81.4479 27.5881V1.15233H80.6292C79.4405 1.15233 78.4277 1.47619 77.5908 2.1239C76.766 2.77162 76.0503 3.84863 75.4439 5.35495C74.8495 6.8462 74.3401 8.88725 73.9156 11.4781H73.0604C73.1453 10.5743 73.1878 9.3994 73.1878 7.95334C73.1878 5.64868 73.0968 3.02769 72.9149 0.0903789H95.9123Z" fill="#1D1D1D"/>
<path d="M126.948 25.8258C126.948 28.6576 127.033 30.9999 127.203 32.8527H106.534V31.9263C107.347 31.8661 107.947 31.7456 108.335 31.5648C108.723 31.369 108.984 31.015 109.118 30.5029C109.251 29.9757 109.318 29.1246 109.318 27.9497V4.99343C109.318 3.81851 109.251 2.97497 109.118 2.46282C108.984 1.93561 108.723 1.58163 108.335 1.40087C107.947 1.20505 107.347 1.07701 106.534 1.01676V0.0903789H126.457C126.287 2.65111 126.202 4.93318 126.202 6.93658C126.202 8.29226 126.238 9.33915 126.311 10.0772H125.456C125.08 6.77841 124.407 4.46622 123.436 3.14067C122.478 1.81511 121.114 1.15233 119.343 1.15233H117.814C117.05 1.15233 116.492 1.23518 116.141 1.40087C115.789 1.5515 115.552 1.85277 115.431 2.30466C115.31 2.74149 115.249 3.45699 115.249 4.45116V15.9067H116.432C117.754 15.9067 118.754 15.3117 119.434 14.1217C120.125 12.9166 120.604 11.4781 120.871 9.80611H121.726C121.653 11.1015 121.617 12.5551 121.617 14.1669V16.3812C121.617 17.9477 121.69 20.1394 121.835 22.9562H120.98C120.459 18.8741 118.942 16.8331 116.432 16.8331H115.249V28.4919C115.249 29.4861 115.31 30.2091 115.431 30.661C115.552 31.0979 115.789 31.3991 116.141 31.5648C116.492 31.7154 117.05 31.7908 117.814 31.7908H119.652C121.411 31.7908 122.83 31.0451 123.909 29.5539C124.989 28.0476 125.753 25.5094 126.202 21.9395H127.057C126.984 22.9487 126.948 24.2441 126.948 25.8258Z" fill="#1D1D1D"/>
<path d="M147.031 7.02696L141.882 23.6341C141.19 25.8634 140.845 27.5806 140.845 28.7857C140.845 29.9305 141.124 30.7288 141.681 31.1807C142.239 31.6175 143.064 31.8661 144.156 31.9263V32.8527H136.696V31.9263C137.921 31.6552 138.989 30.0359 139.898 27.0685L148.395 0H150.979L160.021 28.9664C160.349 29.9907 160.725 30.7363 161.149 31.2033C161.574 31.6552 161.98 31.8962 162.368 31.9263V32.8527H151.051V31.9263C151.998 31.8661 152.665 31.723 153.053 31.497C153.453 31.256 153.653 30.8418 153.653 30.2543C153.653 29.697 153.508 28.9589 153.217 28.04L147.031 7.02696Z" fill="#1D1D1D"/>
<path d="M18.2807 50.1181H17.697V45.2534H18.2807V47.3591H19.3857L20.8521 45.2534H21.5193L19.8653 47.6232L21.6652 50.1181H20.998L19.4066 47.9151H18.2807V50.1181ZM22.9077 48.61C22.8012 48.3135 22.7479 48.0054 22.7479 47.6857C22.7479 47.3661 22.8012 47.058 22.9077 46.7614C23.0189 46.4649 23.1764 46.1985 23.3803 45.9622C23.5842 45.7213 23.8506 45.529 24.1795 45.3854C24.5085 45.2418 24.8791 45.17 25.2914 45.17C25.7038 45.17 26.0744 45.2418 26.4034 45.3854C26.7323 45.529 26.9987 45.7213 27.2026 45.9622C27.4064 46.1985 27.5616 46.4649 27.6682 46.7614C27.7794 47.058 27.835 47.3661 27.835 47.6857C27.835 48.0054 27.7794 48.3135 27.6682 48.61C27.5616 48.9066 27.4064 49.1753 27.2026 49.4162C26.9987 49.6525 26.7323 49.8424 26.4034 49.9861C26.0744 50.1297 25.7038 50.2015 25.2914 50.2015C24.8791 50.2015 24.5085 50.1297 24.1795 49.9861C23.8506 49.8424 23.5842 49.6525 23.3803 49.4162C23.1764 49.1753 23.0189 48.9066 22.9077 48.61ZM27.1192 48.4154C27.2026 48.1838 27.2443 47.9406 27.2443 47.6857C27.2443 47.4309 27.2026 47.1877 27.1192 46.956C27.0404 46.7244 26.9223 46.5159 26.7648 46.3306C26.6119 46.1452 26.408 45.9993 26.1532 45.8927C25.8984 45.7815 25.6111 45.7259 25.2914 45.7259C24.9718 45.7259 24.6845 45.7815 24.4297 45.8927C24.1749 45.9993 23.9687 46.1452 23.8112 46.3306C23.6583 46.5159 23.5401 46.7244 23.4567 46.956C23.378 47.1877 23.3386 47.4309 23.3386 47.6857C23.3386 47.9406 23.378 48.1838 23.4567 48.4154C23.5401 48.6471 23.6583 48.8556 23.8112 49.0409C23.9687 49.2262 24.1749 49.3745 24.4297 49.4857C24.6845 49.5922 24.9718 49.6455 25.2914 49.6455C25.6111 49.6455 25.8984 49.5922 26.1532 49.4857C26.408 49.3745 26.6119 49.2262 26.7648 49.0409C26.9223 48.8556 27.0404 48.6471 27.1192 48.4154ZM34.2791 45.2534H34.7795V50.1181H34.1957V46.3584L32.4514 48.9714H32.09L30.3457 46.3584V50.1181H29.7619V45.2534H30.2623L32.2707 48.2556L34.2791 45.2534ZM37.6167 50.1181H37.0329V45.2534H41.0011V50.1181H40.4174V45.8093H37.6167V50.1181ZM43.2937 50.1181H42.6613L44.7809 45.2534H45.4272L47.5399 50.1181H46.9145L46.4141 48.9436H43.7941L43.2937 50.1181ZM45.0242 46.0387L44.0234 48.4015H46.1847L45.1771 46.0387C45.1678 46.0155 45.1423 45.953 45.1006 45.851C45.0589 45.9576 45.0334 46.0201 45.0242 46.0387ZM52.6743 45.2534H53.258V50.1181H52.6743V47.9568H49.7902V50.1181H49.2064V45.2534H49.7902V47.4008H52.6743V45.2534ZM59.5586 50.1181H58.9748V46.6433V46.2263L56.049 50.1181H55.5069V45.2534H56.0907V48.7212V49.1382L59.0165 45.2534H59.5586V50.1181ZM62.0716 50.1181H61.3627L62.8013 48.2626C62.4306 48.1745 62.1318 48.0077 61.9048 47.7622C61.6824 47.5166 61.5712 47.1946 61.5712 46.7962C61.5712 46.4533 61.6615 46.1638 61.8422 45.9275C62.0229 45.6866 62.2499 45.5151 62.5233 45.4132C62.8013 45.3067 63.1117 45.2534 63.4545 45.2534H65.2892V50.1181H64.7055V48.339H63.4545H63.4476L62.0716 50.1181ZM62.5233 46.0595C62.2916 46.2217 62.1758 46.4672 62.1758 46.7962C62.1758 47.1251 62.2916 47.373 62.5233 47.5398C62.7596 47.702 63.063 47.783 63.4337 47.783H64.7055V45.8093H63.4337C63.063 45.8093 62.7596 45.8927 62.5233 46.0595ZM70.8252 50.1181H70.2415V45.2534H74.2097V50.1181H73.6259V45.8093H70.8252V50.1181ZM76.4606 45.2534H78.1215C79.4975 45.2534 80.1856 45.7769 80.1856 46.824C80.1856 47.8711 79.4975 48.3946 78.1215 48.3946H77.0443V50.1181H76.4606V45.2534ZM79.5948 46.824C79.5948 46.6248 79.5578 46.458 79.4836 46.3236C79.4095 46.1846 79.303 46.0804 79.164 46.0109C79.0296 45.9368 78.8813 45.8858 78.7192 45.858C78.557 45.8256 78.3671 45.8093 78.1493 45.8093H77.0443V47.8386H78.1493C78.5987 47.8386 78.9508 47.7645 79.2057 47.6162C79.4651 47.468 79.5948 47.2039 79.5948 46.824ZM81.8613 48.61C81.7548 48.3135 81.7015 48.0054 81.7015 47.6857C81.7015 47.3661 81.7548 47.058 81.8613 46.7614C81.9725 46.4649 82.1301 46.1985 82.3339 45.9622C82.5378 45.7213 82.8042 45.529 83.1331 45.3854C83.4621 45.2418 83.8327 45.17 84.2451 45.17C84.6574 45.17 85.028 45.2418 85.357 45.3854C85.6859 45.529 85.9523 45.7213 86.1562 45.9622C86.3601 46.1985 86.5153 46.4649 86.6218 46.7614C86.733 47.058 86.7886 47.3661 86.7886 47.6857C86.7886 48.0054 86.733 48.3135 86.6218 48.61C86.5153 48.9066 86.3601 49.1753 86.1562 49.4162C85.9523 49.6525 85.6859 49.8424 85.357 49.9861C85.028 50.1297 84.6574 50.2015 84.2451 50.2015C83.8327 50.2015 83.4621 50.1297 83.1331 49.9861C82.8042 49.8424 82.5378 49.6525 82.3339 49.4162C82.1301 49.1753 81.9725 48.9066 81.8613 48.61ZM86.0728 48.4154C86.1562 48.1838 86.1979 47.9406 86.1979 47.6857C86.1979 47.4309 86.1562 47.1877 86.0728 46.956C85.994 46.7244 85.8759 46.5159 85.7184 46.3306C85.5655 46.1452 85.3616 45.9993 85.1068 45.8927C84.852 45.7815 84.5647 45.7259 84.2451 45.7259C83.9254 45.7259 83.6381 45.7815 83.3833 45.8927C83.1285 45.9993 82.9223 46.1452 82.7648 46.3306C82.6119 46.5159 82.4938 46.7244 82.4104 46.956C82.3316 47.1877 82.2922 47.4309 82.2922 47.6857C82.2922 47.9406 82.3316 48.1838 82.4104 48.4154C82.4938 48.6471 82.6119 48.8556 82.7648 49.0409C82.9223 49.2262 83.1285 49.3745 83.3833 49.4857C83.6381 49.5922 83.9254 49.6455 84.2451 49.6455C84.5647 49.6455 84.852 49.5922 85.1068 49.4857C85.3616 49.3745 85.5655 49.2262 85.7184 49.0409C85.8759 48.8556 85.994 48.6471 86.0728 48.4154ZM92.7671 50.1181H92.1834V46.6433V46.2263L89.2576 50.1181H88.7155V45.2534H89.2993V48.7212V49.1382L92.2251 45.2534H92.7671V50.1181ZM98.2962 48.8046C98.2962 49.0548 98.2383 49.2749 98.1225 49.4648C98.0113 49.6502 97.8584 49.7961 97.6638 49.9027C97.4739 50.0046 97.27 50.0787 97.0523 50.1251C96.8391 50.176 96.6121 50.2015 96.3712 50.2015C95.7457 50.2015 95.1689 50.0996 94.6407 49.8957V49.3119C95.1319 49.5436 95.6948 49.6548 96.3295 49.6455C97.2422 49.6455 97.6986 49.3467 97.6986 48.749C97.6986 48.1653 97.2631 47.8734 96.3921 47.8734H95.3983V47.3174H96.3295C96.6863 47.3174 96.9712 47.2502 97.1843 47.1159C97.3974 46.9769 97.504 46.78 97.504 46.5252C97.504 45.9923 97.0824 45.7259 96.2392 45.7259C95.7295 45.7213 95.2245 45.8348 94.7241 46.0665V45.4827C95.2014 45.2742 95.7226 45.17 96.2878 45.17C96.8252 45.17 97.2608 45.2812 97.5943 45.5036C97.9279 45.7213 98.0947 46.0387 98.0947 46.4557C98.0947 46.7383 98.0206 46.9769 97.8723 47.1715C97.7241 47.3614 97.5318 47.4958 97.2955 47.5745C97.5596 47.6301 97.7912 47.7599 97.9905 47.9637C98.1943 48.1676 98.2962 48.4479 98.2962 48.8046ZM100.231 45.2534H102.225C102.735 45.2534 103.138 45.3599 103.434 45.5731C103.731 45.7815 103.879 46.085 103.879 46.4835C103.879 46.7707 103.803 47.007 103.65 47.1923C103.497 47.373 103.314 47.4958 103.101 47.5606C103.36 47.6301 103.587 47.7645 103.782 47.9637C103.977 48.1583 104.074 48.4317 104.074 48.7838C104.074 48.9969 104.032 49.1845 103.949 49.3467C103.87 49.5089 103.768 49.6386 103.643 49.7359C103.522 49.8285 103.379 49.905 103.212 49.9652C103.05 50.0254 102.892 50.0671 102.739 50.0903C102.591 50.1088 102.438 50.1181 102.281 50.1181H100.231V45.2534ZM103.483 48.7212C103.483 48.1606 103.096 47.8803 102.323 47.8803H100.814V49.5621H102.163C102.311 49.5621 102.436 49.5598 102.538 49.5552C102.64 49.5459 102.756 49.5274 102.885 49.4996C103.015 49.4672 103.119 49.4231 103.198 49.3675C103.277 49.3073 103.344 49.2239 103.4 49.1174C103.455 49.0062 103.483 48.8741 103.483 48.7212ZM103.289 46.5669C103.289 46.2935 103.194 46.0989 103.004 45.9831C102.818 45.8673 102.543 45.8093 102.177 45.8093H100.814V47.3244H102.336C102.614 47.3244 102.841 47.2641 103.017 47.1437C103.198 47.0186 103.289 46.8263 103.289 46.5669ZM105.849 48.61C105.742 48.3135 105.689 48.0054 105.689 47.6857C105.689 47.3661 105.742 47.058 105.849 46.7614C105.96 46.4649 106.117 46.1985 106.321 45.9622C106.525 45.7213 106.791 45.529 107.12 45.3854C107.449 45.2418 107.82 45.17 108.232 45.17C108.645 45.17 109.015 45.2418 109.344 45.3854C109.673 45.529 109.94 45.7213 110.143 45.9622C110.347 46.1985 110.503 46.4649 110.609 46.7614C110.72 47.058 110.776 47.3661 110.776 47.6857C110.776 48.0054 110.72 48.3135 110.609 48.61C110.503 48.9066 110.347 49.1753 110.143 49.4162C109.94 49.6525 109.673 49.8424 109.344 49.9861C109.015 50.1297 108.645 50.2015 108.232 50.2015C107.82 50.2015 107.449 50.1297 107.12 49.9861C106.791 49.8424 106.525 49.6525 106.321 49.4162C106.117 49.1753 105.96 48.9066 105.849 48.61ZM110.06 48.4154C110.143 48.1838 110.185 47.9406 110.185 47.6857C110.185 47.4309 110.143 47.1877 110.06 46.956C109.981 46.7244 109.863 46.5159 109.706 46.3306C109.553 46.1452 109.349 45.9993 109.094 45.8927C108.839 45.7815 108.552 45.7259 108.232 45.7259C107.913 45.7259 107.625 45.7815 107.371 45.8927C107.116 45.9993 106.91 46.1452 106.752 46.3306C106.599 46.5159 106.481 46.7244 106.398 46.956C106.319 47.1877 106.28 47.4309 106.28 47.6857C106.28 47.9406 106.319 48.1838 106.398 48.4154C106.481 48.6471 106.599 48.8556 106.752 49.0409C106.91 49.2262 107.116 49.3745 107.371 49.4857C107.625 49.5922 107.913 49.6455 108.232 49.6455C108.552 49.6455 108.839 49.5922 109.094 49.4857C109.349 49.3745 109.553 49.2262 109.706 49.0409C109.863 48.8556 109.981 48.6471 110.06 48.4154ZM112.589 51.2648H112.033V49.5621H112.623C113.151 48.6077 113.416 47.1715 113.416 45.2534H116.404V49.5621H117.015V51.2648H116.459V50.1181H112.589V51.2648ZM114.013 45.8093C113.911 47.5421 113.666 48.793 113.277 49.5621H115.82V45.8093H114.013ZM122.899 50.1181H122.315V46.6433V46.2263L119.389 50.1181H118.847V45.2534H119.431V48.7212V49.1382L122.357 45.2534H122.899V50.1181ZM124.606 45.2534H128.609V45.8093H126.899V50.1181H126.315V45.8093H124.606V45.2534ZM130.315 45.2534H133.595V45.8093H130.899V47.3869H133.387V47.9429H130.899V49.5621H133.637V50.1181H130.315V45.2534ZM136.494 45.2534H139.49V50.1181H138.906V45.8093H137.05C136.934 47.1437 136.816 48.0703 136.696 48.5892C136.469 49.5482 136.098 50.0764 135.584 50.1737C135.528 50.183 135.468 50.1876 135.403 50.1876C135.255 50.1876 135.111 50.1621 134.972 50.1112V49.5552C135.065 49.5876 135.176 49.6038 135.306 49.6038C135.468 49.6038 135.612 49.5251 135.737 49.3675C135.862 49.21 135.961 49.0062 136.036 48.756C136.114 48.5012 136.182 48.1907 136.237 47.8247C136.297 47.4541 136.344 47.0811 136.376 46.7058C136.413 46.3306 136.448 45.9182 136.48 45.4688C136.48 45.4364 136.48 45.4132 136.48 45.3993C136.485 45.3808 136.487 45.3576 136.487 45.3298C136.492 45.302 136.494 45.2765 136.494 45.2534ZM143.403 50.1181H141.742V45.2534H142.326V46.9838H143.403C144.779 46.9838 145.467 47.505 145.467 48.5475C145.467 49.5946 144.779 50.1181 143.403 50.1181ZM142.326 47.5398V49.5621H143.431C143.648 49.5621 143.838 49.5482 144 49.5204C144.163 49.488 144.311 49.437 144.445 49.3675C144.584 49.2934 144.691 49.1892 144.765 49.0548C144.839 48.9158 144.876 48.7467 144.876 48.5475C144.876 48.1676 144.746 47.9058 144.487 47.7622C144.232 47.6139 143.88 47.5398 143.431 47.5398H142.326Z" fill="#1D1D1D"/>
<rect y="47.0677" width="14.4666" height="0.747706" fill="#1D1D1D"/>
<rect x="148.462" y="47.0677" width="14.538" height="0.747706" fill="#1D1D1D"/>
</svg>
