<svg width="50" height="65" viewBox="0 0 50 65" fill="none" xmlns="http://www.w3.org/2000/svg">
<path d="M24.9999 0C11.2151 0 0 11.2181 0 25.0068C0 38.0402 20.7505 60.4785 23.1163 62.9973L24.9999 65L26.8836 62.9973C29.2499 60.4807 50 38.0402 50 25.0068C50.0011 11.2181 38.786 0 24.9999 0Z" fill="#8F7452"/>
<ellipse cx="24.8459" cy="24.853" rx="19.7496" ry="19.7549" fill="white"/>
<path d="M32.73 33.053C32.9901 33.8477 33.2887 34.4262 33.6258 34.7886C33.9629 35.1392 34.2856 35.3262 34.5939 35.3495V36.0683H25.6069V35.3495C26.3583 35.3028 26.888 35.1918 27.1963 35.0165C27.5141 34.8295 27.6731 34.5081 27.6731 34.0522C27.6731 33.6198 27.5575 33.0471 27.3263 32.3342L25.5492 26.4438H19.0907L18.3249 28.9156C17.7759 30.6454 17.5014 31.9777 17.5014 32.9127C17.5014 33.801 17.7229 34.4204 18.166 34.771C18.6091 35.11 19.2641 35.3028 20.131 35.3495V36.0683H14.2072V35.3495C15.18 35.1392 16.0277 33.8828 16.7501 31.5804L23.4975 10.5781H25.5492L32.73 33.053ZM25.3324 25.725L22.4138 16.0303L19.3363 25.725H25.3324Z" fill="#1D1D1D"/>
</svg>
