<svg width="6" height="11" viewBox="0 0 6 11" fill="none" xmlns="http://www.w3.org/2000/svg">
<path d="M3.262 7.056H2.142C2.142 6.64533 2.27267 6.22533 2.534 5.796C2.80467 5.36667 3.094 4.998 3.402 4.69C3.71933 4.37267 4.00867 4.01333 4.27 3.612C4.54067 3.21067 4.676 2.83267 4.676 2.478C4.676 1.57267 3.95733 1.12 2.52 1.12C1.68 1.12 0.84 1.36733 0 1.862V0.742C0.84 0.247333 1.74067 0 2.702 0C3.63533 0 4.396 0.205333 4.984 0.616C5.572 1.01733 5.866 1.60067 5.866 2.366C5.866 2.73 5.77733 3.094 5.6 3.458C5.42267 3.822 5.20333 4.15333 4.942 4.452C4.69 4.74133 4.43333 5.026 4.172 5.306C3.92 5.586 3.70533 5.88 3.528 6.188C3.35067 6.48667 3.262 6.776 3.262 7.056ZM3.22 8.862C3.36 8.98333 3.43 9.156 3.43 9.38C3.43 9.604 3.36 9.78133 3.22 9.912C3.08 10.0333 2.90733 10.094 2.702 10.094C2.49667 10.094 2.31933 10.0333 2.17 9.912C2.03 9.78133 1.96 9.604 1.96 9.38C1.96 9.156 2.03 8.98333 2.17 8.862C2.31933 8.74067 2.49667 8.68 2.702 8.68C2.90733 8.68 3.08 8.74067 3.22 8.862Z" fill="#1D1D1D"/>
</svg>
