<svg width="16" height="18" viewBox="0 0 16 18" fill="none" xmlns="http://www.w3.org/2000/svg">
<path d="M12.2431 0.425507C9.37213 -0.141836 6.39071 -0.141836 3.51972 0.425507C2.24986 0.709178 0.648733 2.29774 0.372677 3.54589C-0.124226 5.98547 -0.124226 8.48177 0.372677 10.9213C0.703945 12.1695 2.30507 13.7581 3.51972 14.0417C3.57493 14.0417 3.63014 14.0985 3.63014 14.1552V17.7295C3.63014 17.8997 3.85099 18.0131 3.96141 17.8429L5.61775 16.0842C5.61775 16.0842 6.94282 14.6658 7.16367 14.4389C7.16367 14.4389 7.21888 14.3821 7.2741 14.3821C8.93044 14.4389 10.642 14.2687 12.2983 13.985C13.5682 13.7013 15.1693 12.1128 15.4454 10.8646C15.9423 8.42504 15.9423 5.92873 15.4454 3.48916C15.1141 2.29774 13.513 0.709178 12.2431 0.425507ZM12.2983 11.0915C12.0223 11.6589 11.691 12.1128 11.1389 12.3964C10.9733 12.4532 10.8076 12.5099 10.642 12.5666C10.4211 12.5099 10.2555 12.4532 10.0899 12.3964C8.32311 11.6589 6.66677 10.6377 5.3417 9.16258C4.62395 8.31157 4.01662 7.34709 3.51972 6.32587C3.29888 5.81526 3.07803 5.36139 2.9124 4.85078C2.74676 4.39691 3.02282 3.94303 3.29888 3.60263C3.57493 3.26222 3.9062 3.03528 4.29268 2.86508C4.56874 2.69488 4.8448 2.80835 5.06564 3.03528C5.50733 3.60263 5.94902 4.16997 6.28029 4.79404C6.50113 5.19118 6.44592 5.64506 6.05944 5.92873C5.94902 5.98546 5.89381 6.0422 5.78339 6.15567C5.72817 6.2124 5.61775 6.26914 5.56254 6.3826C5.45212 6.55281 5.45212 6.72301 5.50733 6.89321C5.94902 8.1981 6.77719 9.21932 8.04705 9.78666C8.2679 9.90013 8.43353 9.95686 8.70959 9.95686C9.09607 9.90013 9.2617 9.44625 9.53776 9.21932C9.81382 8.99238 10.1451 8.99238 10.4764 9.16258C10.7524 9.33279 11.0285 9.55972 11.3597 9.78666C11.6358 10.0136 11.9118 10.1838 12.1879 10.4107C12.3535 10.5242 12.4087 10.8079 12.2983 11.0915ZM9.97945 6.83648C9.86902 6.83648 9.92424 6.83648 9.97945 6.83648C9.7586 6.83648 9.70339 6.72301 9.64818 6.55281C9.64818 6.43934 9.64818 6.26914 9.59297 6.15567C9.53776 5.92873 9.42734 5.70179 9.20649 5.53159C9.09607 5.47486 8.98564 5.41812 8.87522 5.36139C8.70959 5.30465 8.59917 5.30465 8.43353 5.30465C8.2679 5.24792 8.21269 5.13445 8.21269 4.96425C8.21269 4.85078 8.37832 4.73731 8.48874 4.73731C9.37212 4.79405 10.0347 5.30465 10.1451 6.3826C10.1451 6.43934 10.1451 6.55281 10.1451 6.60954C10.1451 6.72301 10.0899 6.83648 9.97945 6.83648ZM9.42733 4.34017C9.15128 4.2267 8.87522 4.11323 8.54395 4.0565C8.43353 4.0565 8.2679 3.99977 8.15748 3.99977C7.99184 3.99977 7.88142 3.8863 7.93663 3.71609C7.93663 3.54589 8.04705 3.43242 8.21269 3.48916C8.7648 3.54589 9.2617 3.65936 9.75861 3.8863C10.7524 4.39691 11.3045 5.24792 11.4702 6.3826C11.4702 6.43934 11.4702 6.49607 11.4702 6.55281C11.4702 6.66628 11.4702 6.77974 11.4702 6.94995C11.4702 7.00668 11.4702 7.06342 11.4702 7.12015C11.4149 7.34709 11.0285 7.40382 10.9733 7.12015C10.9733 7.06342 10.918 6.94995 10.918 6.89321C10.918 6.3826 10.8076 5.872 10.5868 5.41812C10.2555 4.90751 9.86902 4.56711 9.42733 4.34017ZM12.4087 7.74423C12.2431 7.74423 12.1327 7.57403 12.1327 7.40382C12.1327 7.06342 12.0775 6.72301 12.0223 6.3826C11.8014 4.56711 10.3659 3.09202 8.65438 2.80835C8.37832 2.75161 8.10226 2.75161 7.88142 2.69488C7.71579 2.69488 7.49494 2.69488 7.43973 2.46794C7.38452 2.29774 7.55015 2.12754 7.71578 2.12754C7.771 2.12754 7.82621 2.12754 7.82621 2.12754C7.93663 2.12754 10.0899 2.18427 7.82621 2.12754C10.1451 2.18427 12.0775 3.77283 12.464 6.15567C12.5192 6.55281 12.5744 6.94995 12.5744 7.40382C12.6848 7.57403 12.5744 7.74423 12.4087 7.74423Z" fill="#5644D0"/>
</svg>
