<svg width="18" height="18" viewBox="0 0 18 18" fill="none" xmlns="http://www.w3.org/2000/svg">
<path d="M14.985 2.98781C13.3977 1.406 11.2812 0.527222 9.04723 0.527222C4.40286 0.527222 0.640332 4.27669 0.640332 8.90493C0.640332 10.3696 1.05186 11.8342 1.75733 13.0645L0.581543 17.3998L5.04955 16.2281C6.28413 16.8725 7.63628 17.2241 9.04723 17.2241C13.6916 17.2241 17.4541 13.4746 17.4541 8.84635C17.3953 6.67869 16.5723 4.56961 14.985 2.98781ZM13.1037 11.8928C12.9273 12.3615 12.1043 12.8301 11.6928 12.8887C11.34 12.9473 10.8697 12.9473 10.3994 12.8302C10.1054 12.713 9.69392 12.5958 9.2236 12.3615C7.10718 11.4827 5.75502 9.37361 5.63744 9.19786C5.51986 9.08069 4.7556 8.08473 4.7556 7.0302C4.7556 5.97566 5.2847 5.50698 5.46107 5.27264C5.63744 5.03829 5.8726 5.03829 6.04897 5.03829C6.16655 5.03829 6.34291 5.03829 6.46049 5.03829C6.57807 5.03829 6.75444 4.97971 6.93081 5.38981C7.10718 5.7999 7.5187 6.85444 7.57749 6.91303C7.63628 7.0302 7.63628 7.14737 7.57749 7.26454C7.5187 7.38171 7.45991 7.49888 7.34233 7.61605C7.22475 7.73322 7.10718 7.90898 7.04839 7.96756C6.93081 8.08473 6.81323 8.2019 6.93081 8.37766C7.04839 8.612 7.45991 9.25644 8.1066 9.84229C8.92965 10.5453 9.57634 10.7797 9.8115 10.8968C10.0467 11.014 10.1642 10.9554 10.2818 10.8382C10.3994 10.7211 10.8109 10.2524 10.9285 10.0181C11.0461 9.78371 11.2224 9.8423 11.3988 9.90088C11.5752 9.95947 12.6334 10.4867 12.8098 10.6039C13.0449 10.7211 13.1625 10.7797 13.2213 10.8382C13.2801 11.014 13.2801 11.4241 13.1037 11.8928Z" fill="#28AC35"/>
</svg>
