<svg width="60" height="60" viewBox="0 0 60 60" fill="none" xmlns="http://www.w3.org/2000/svg">
<circle cx="30" cy="30" r="30" fill="white"/>
<path fill-rule="evenodd" clip-rule="evenodd" d="M21.0007 29.1801C21.0007 24.6623 24.6635 20.9998 29.1817 20.9998C33.6999 20.9998 37.3627 24.6623 37.3627 29.1801C37.3627 33.698 33.6999 37.3605 29.1817 37.3605C24.6635 37.3605 21.0007 33.698 21.0007 29.1801ZM29.1817 22.3263C25.3962 22.3263 22.3274 25.3949 22.3274 29.1801C22.3274 32.9654 25.3962 36.034 29.1817 36.034C32.9672 36.034 36.0361 32.9654 36.0361 29.1801C36.0361 25.3949 32.9672 22.3263 29.1817 22.3263Z" fill="#1D1D1D"/>
<path fill-rule="evenodd" clip-rule="evenodd" d="M34.1159 34.1154C34.375 33.8564 34.795 33.8564 35.054 34.1154L38.8063 37.8675C39.0654 38.1265 39.0654 38.5464 38.8063 38.8055C38.5473 39.0645 38.1273 39.0645 37.8683 38.8055L34.1159 35.0534C33.8569 34.7944 33.8569 34.3744 34.1159 34.1154Z" fill="#1D1D1D"/>
</svg>
