<svg width="36" height="36" viewBox="0 0 36 36" fill="none" xmlns="http://www.w3.org/2000/svg">
<g clip-path="url(#clip0_152_2964)">
<path d="M7.52344 13.3594C7.52344 19.175 12.2547 23.9063 18.0703 23.9063C23.886 23.9063 28.6172 19.175 28.6172 13.3594C28.6172 7.54377 23.886 2.8125 18.0703 2.8125C12.2547 2.8125 7.52344 7.54377 7.52344 13.3594ZM18.0703 4.21875C23.1106 4.21875 27.211 8.31913 27.211 13.3594C27.211 18.3997 23.1106 22.5 18.0703 22.5C13.0301 22.5 8.92969 18.3997 8.92969 13.3594C8.92969 8.31913 13.0301 4.21875 18.0703 4.21875Z" fill="#1D1D1D"/>
<path d="M11.5587 12.106L14.2842 14.7913L13.6571 18.5654C13.6135 18.8282 13.722 19.093 13.9376 19.2496C14.1529 19.4061 14.4383 19.4273 14.6747 19.3048L18.0704 17.5415L21.4657 19.3048C21.7002 19.4264 21.9856 19.4075 22.2029 19.2496C22.4185 19.093 22.527 18.8282 22.4833 18.5654L21.8562 14.7913L24.5817 12.106C24.7715 11.9192 24.8393 11.6412 24.7569 11.3877C24.6745 11.1345 24.4562 10.9497 24.1928 10.9098L20.4104 10.3405L18.699 6.91794C18.5801 6.67981 18.3365 6.5293 18.0704 6.5293C17.8039 6.5293 17.5606 6.67981 17.4414 6.91794L15.73 10.3405L11.9477 10.9098C11.6843 10.9494 11.4659 11.1345 11.3835 11.3877C11.3011 11.6412 11.3692 11.9192 11.5587 12.106ZM16.3005 11.6767C16.5268 11.6426 16.7223 11.5006 16.8248 11.296L18.0704 8.80457L19.3159 11.296C19.4184 11.5006 19.6139 11.6426 19.8403 11.6767L22.5932 12.0911L20.6093 14.0453C20.4464 14.206 20.3717 14.4359 20.4091 14.6617L20.8656 17.4085L18.3942 16.1253C18.2928 16.0726 18.1816 16.0462 18.0704 16.0462C17.9591 16.0462 17.8479 16.0726 17.7463 16.1253L15.2749 17.4085L15.7314 14.6617C15.769 14.4359 15.6943 14.206 15.5311 14.0453L13.5475 12.0911L16.3005 11.6767Z" fill="#1D1D1D"/>
<path d="M18.7734 0.703126C18.7734 1.09149 18.4587 1.40625 18.0703 1.40625C17.6819 1.40625 17.3672 1.09149 17.3672 0.703126C17.3672 0.314759 17.6819 0 18.0703 0C18.4587 0 18.7734 0.314759 18.7734 0.703126Z" fill="#1D1D1D"/>
<path d="M14.7566 0.414383C8.8418 1.92418 4.71094 7.24734 4.71094 13.3593C4.71094 17.1554 6.30698 20.7323 9.10877 23.2654L4.87271 30.7309C4.73648 30.9713 4.75351 31.269 4.91611 31.492C5.07871 31.7153 5.35666 31.8227 5.6272 31.7664L10.4378 30.7675L12.1286 35.532C12.2204 35.7912 12.4552 35.9728 12.7293 35.9972C13.0034 36.0217 13.2663 35.8835 13.4022 35.6443L18.0703 27.4375L22.7382 35.6443C22.8639 35.8654 23.098 35.9997 23.349 35.9997C23.3696 35.9997 23.3905 35.9989 23.4111 35.9972C23.6852 35.9728 23.92 35.791 24.012 35.532L25.7025 30.7675L30.5132 31.7664C30.7835 31.8224 31.0617 31.715 31.2243 31.492C31.3872 31.269 31.4039 30.9713 31.2677 30.7309L27.0316 23.2654C29.8334 20.7323 31.4295 17.1554 31.4295 13.3593C31.4295 7.24734 27.2986 1.92418 21.3841 0.414383C21.0075 0.318253 20.6249 0.545395 20.5288 0.921678C20.4327 1.29796 20.6598 1.68083 21.0361 1.77696C26.3277 3.12774 30.0235 7.89059 30.0235 13.3593C30.0235 20.0151 24.6179 25.3125 18.0703 25.3125C11.5181 25.3125 6.11719 20.0107 6.11719 13.3593C6.11719 7.89059 9.81272 3.12774 15.1043 1.77696C15.4806 1.68083 15.7077 1.29796 15.6119 0.921678C15.5157 0.545395 15.1331 0.318253 14.7566 0.414383ZM12.94 33.6132L11.5582 29.7194C11.4406 29.3881 11.0968 29.1945 10.7526 29.2659L6.86261 30.0737L10.2151 24.1652C12.1698 25.5863 14.4844 26.452 16.8912 26.6663L12.94 33.6132ZM25.3878 29.2659C25.0439 29.1945 24.6998 29.3881 24.5822 29.7194L23.2007 33.6132L19.2492 26.6663C21.6563 26.452 23.9705 25.5863 25.9256 24.1652L29.2781 30.0737L25.3878 29.2659Z" fill="#1D1D1D"/>
</g>
<defs>
<clipPath id="clip0_152_2964">
<rect width="36" height="36" fill="white"/>
</clipPath>
</defs>
</svg>
