<svg width="426" height="439" viewBox="0 0 426 439" fill="none" xmlns="http://www.w3.org/2000/svg">
<path d="M386.502 386.503C391.929 400.17 398.16 410.119 405.194 416.349C412.229 422.379 418.962 425.595 425.394 425.997V438.358H237.871V425.997C253.548 425.193 264.602 423.284 271.034 420.269C277.667 417.053 280.983 411.526 280.983 403.687C280.983 396.25 278.571 386.402 273.747 374.142L236.665 272.843H101.902L85.9229 315.352C74.4665 345.099 68.7383 368.012 68.7383 384.091C68.7383 399.366 73.3611 410.018 82.6066 416.048C91.8521 421.877 105.519 425.193 123.608 425.997V438.358H0V425.997C20.2999 422.379 37.987 400.773 53.0612 361.178L193.854 0H236.665L386.502 386.503ZM232.143 260.482L171.243 93.7615L107.027 260.482H232.143Z" fill="#F8F8F8"/>
</svg>
