<?xml version="1.0" standalone="no"?>
<!DOCTYPE svg PUBLIC "-//W3C//DTD SVG 20010904//EN"
 "http://www.w3.org/TR/2001/REC-SVG-20010904/DTD/svg10.dtd">
<svg version="1.0" xmlns="http://www.w3.org/2000/svg"
 width="960.000000pt" height="960.000000pt" viewBox="0 0 960.000000 960.000000"
 preserveAspectRatio="xMidYMid meet">
<metadata>
Created by potrace 1.14, written by Peter Selinger 2001-2017
</metadata>
<g transform="translate(0.000000,960.000000) scale(0.100000,-0.100000)"
fill="#000000" stroke="none">
<path d="M4377 9593 c-2 -5 -21 -62 -42 -128 -20 -66 -57 -185 -82 -265 -24
-80 -47 -152 -50 -160 -2 -8 -4 -17 -4 -20 -1 -3 -5 -11 -11 -17 -6 -7 -8 -13
-5 -13 4 0 -1 -19 -9 -42 -9 -24 -17 -47 -18 -53 -13 -51 -29 -106 -41 -135
-7 -19 -37 -111 -65 -205 -29 -93 -61 -197 -72 -230 -11 -33 -21 -67 -23 -75
-2 -8 -8 -27 -14 -43 -6 -15 -13 -38 -15 -50 -2 -12 -11 -40 -19 -62 -16 -42
-78 -240 -81 -259 -1 -6 -4 -15 -7 -21 -3 -5 -14 -39 -24 -75 -11 -36 -22 -67
-25 -70 -3 -3 -6 -14 -8 -25 -2 -11 -19 -69 -38 -130 -19 -60 -42 -132 -50
-160 -8 -27 -18 -57 -21 -65 -3 -8 -7 -20 -8 -26 -2 -7 -22 -72 -46 -145 -23
-74 -44 -138 -45 -144 -1 -5 -14 -48 -29 -95 -16 -47 -27 -85 -26 -85 1 0 -14
-45 -32 -100 -19 -55 -35 -103 -36 -107 -2 -10 -64 -210 -107 -348 -4 -14 -8
-27 -9 -30 -1 -8 -86 -273 -92 -290 -3 -8 -7 -21 -9 -27 -1 -7 -12 -43 -24
-80 -12 -38 -23 -72 -25 -78 -1 -5 -5 -17 -8 -25 -9 -23 -109 -346 -113 -365
-1 -5 -9 -29 -18 -53 -8 -23 -16 -44 -16 -47 0 -3 -2 -10 -5 -17 -14 -45 -110
-352 -122 -393 -8 -27 -28 -88 -43 -135 -26 -79 -73 -229 -75 -240 -1 -3 -12
-39 -25 -80 -13 -41 -25 -79 -26 -85 -1 -5 -21 -66 -43 -135 -23 -69 -41 -131
-41 -138 0 -7 -4 -20 -10 -30 -9 -16 -61 -183 -62 -199 0 -5 -4 -16 -10 -26
-5 -10 -11 -27 -13 -38 -4 -22 -91 -298 -108 -344 -7 -16 -12 -34 -12 -40 -1
-5 -4 -17 -7 -25 -10 -23 -52 -153 -54 -167 -2 -13 -52 -171 -61 -193 -5 -13
-10 -30 -17 -65 -1 -5 -4 -14 -7 -20 -4 -5 -10 -23 -14 -40 -11 -39 -6 -23
-50 -160 -21 -66 -39 -122 -40 -125 -3 -16 -47 -158 -55 -175 -4 -11 -18 -54
-30 -95 -11 -41 -27 -92 -35 -112 -8 -21 -12 -38 -9 -38 4 0 1 -6 -5 -13 -6
-8 -13 -24 -15 -38 -3 -13 -6 -26 -7 -29 -1 -3 -3 -9 -4 -15 -1 -5 -5 -17 -8
-25 -7 -19 -41 -123 -42 -130 -1 -5 -61 -200 -71 -230 -3 -8 -6 -17 -6 -20 -1
-3 -14 -40 -29 -82 -15 -43 -25 -78 -22 -78 3 0 1 -6 -4 -12 -6 -7 -18 -38
-28 -68 -20 -61 -67 -183 -95 -245 -10 -22 -28 -65 -41 -95 -12 -30 -29 -63
-37 -72 -8 -10 -12 -18 -9 -18 7 0 -31 -73 -93 -181 -114 -197 -254 -355 -385
-435 -48 -29 -139 -69 -160 -69 -6 0 -11 -54 -13 -138 l-3 -137 1091 0 c1107
0 1097 0 1091 33 -2 10 -2 39 0 110 0 32 -1 61 -4 64 -3 3 -2 16 3 29 13 33
22 30 -165 50 -74 8 -252 48 -300 68 -19 8 -35 13 -35 11 0 -6 -137 65 -185
96 -130 84 -230 260 -261 459 -2 14 -8 51 -12 83 -10 64 -8 331 2 417 4 30 9
73 12 95 6 58 13 107 19 131 2 12 7 39 10 60 3 21 8 50 11 64 3 14 8 35 10 48
13 67 56 261 64 287 5 17 11 41 14 55 4 21 81 307 90 335 2 6 4 13 5 17 3 10
13 43 46 148 15 47 28 92 30 100 2 8 4 15 5 15 1 0 3 7 5 15 2 8 15 53 30 100
14 47 27 92 29 100 7 24 57 183 63 200 3 8 8 24 10 35 2 11 13 49 25 85 12 36
23 70 24 75 1 6 12 44 25 85 25 84 26 86 33 118 3 12 7 25 10 30 5 9 2372 10
2381 1 3 -4 8 -19 11 -33 2 -15 11 -46 19 -69 11 -34 34 -113 40 -137 0 -3 9
-32 19 -65 10 -33 19 -64 20 -70 2 -5 10 -35 20 -65 10 -30 26 -84 36 -120 29
-104 78 -271 95 -320 8 -25 17 -54 19 -65 3 -11 23 -81 46 -155 22 -74 42
-142 44 -151 3 -9 14 -49 26 -90 12 -41 23 -78 25 -84 1 -5 5 -17 8 -25 4 -8
8 -27 11 -42 2 -14 10 -37 17 -50 7 -12 11 -23 10 -23 -2 0 2 -20 9 -45 34
-121 62 -216 68 -230 3 -8 7 -19 8 -25 1 -5 3 -13 4 -17 1 -5 3 -11 4 -15 2
-5 8 -28 16 -53 7 -25 14 -50 16 -56 1 -6 16 -57 34 -114 18 -57 34 -110 35
-119 2 -9 4 -16 5 -16 1 0 3 -7 5 -15 2 -8 17 -63 33 -121 17 -59 33 -122 36
-140 3 -19 10 -57 15 -86 29 -149 31 -297 7 -393 -9 -35 -23 -71 -31 -80 -8
-9 -15 -21 -15 -27 0 -35 -162 -147 -225 -156 -11 -1 -24 -5 -30 -8 -10 -6
-55 -18 -90 -24 -11 -2 -48 -9 -82 -15 -34 -6 -91 -13 -125 -16 -35 -3 -72 -7
-83 -9 -11 -2 -29 -4 -41 -4 -19 -1 -20 -7 -20 -133 l1 -133 1653 -3 1652 -2
1 22 c1 34 1 200 0 224 -1 17 -13 24 -65 38 -127 35 -278 162 -385 324 -33 51
-61 98 -61 103 0 5 -11 27 -25 49 -14 22 -25 42 -25 46 0 3 -7 20 -15 37 -28
61 -73 183 -108 292 -85 265 -137 431 -140 450 -2 11 -7 27 -10 35 -6 13 -41
123 -66 205 -32 102 -108 344 -133 424 -17 51 -31 98 -32 105 -1 6 -23 76 -48
156 -85 266 -181 577 -187 602 -1 4 -9 27 -17 50 -9 24 -17 50 -19 58 -2 8
-23 74 -45 145 -23 72 -50 157 -60 190 -10 33 -41 134 -70 225 -28 91 -58 188
-67 215 -8 28 -34 112 -59 188 -24 76 -44 142 -44 147 0 5 -5 21 -12 37 -11
28 -15 42 -21 66 -1 6 -6 17 -9 23 -4 6 -9 21 -12 35 -3 13 -23 83 -46 154
-22 72 -42 135 -44 140 -3 11 -29 97 -31 105 -1 3 -5 12 -8 20 -7 17 -77 245
-84 275 -2 11 -8 29 -13 40 -5 11 -14 38 -20 60 -6 22 -14 47 -17 55 -3 8 -7
22 -9 30 -2 8 -33 107 -69 220 -36 113 -68 216 -71 230 -2 14 -9 34 -14 45 -8
19 -73 228 -72 232 1 2 -5 18 -14 38 -8 19 -14 36 -13 37 2 3 -56 195 -75 253
-8 22 -29 87 -47 145 -17 58 -50 160 -72 228 -21 68 -40 129 -41 135 -2 7 -5
19 -8 27 -3 8 -18 56 -33 105 -15 50 -33 108 -41 130 -7 22 -41 130 -74 240
-34 110 -65 209 -70 220 -8 18 -17 53 -21 80 0 6 -5 18 -11 28 -5 10 -11 26
-13 35 -4 22 -44 152 -52 172 -4 8 -7 18 -8 23 -2 4 -3 8 -5 10 -1 1 -3 11 -5
21 -2 10 -11 42 -20 70 -10 28 -18 56 -20 61 -1 6 -5 17 -8 25 -12 31 -60 186
-61 200 -1 9 -4 20 -7 25 -3 6 -18 51 -34 100 -15 50 -38 124 -52 165 -14 41
-26 83 -28 92 -2 9 -26 89 -54 176 -28 87 -51 164 -51 171 0 6 -4 19 -10 29
-8 14 -68 202 -76 237 -6 25 -64 207 -69 216 -7 11 -752 13 -758 2z m-367
-2150 c12 -49 25 -92 29 -98 3 -5 6 -14 7 -20 3 -19 67 -240 75 -260 8 -21 17
-50 24 -82 2 -10 23 -79 45 -153 23 -74 43 -139 44 -145 1 -5 9 -30 16 -55 7
-25 14 -49 16 -55 1 -5 10 -37 20 -70 10 -33 17 -63 16 -67 -1 -5 3 -8 9 -8 5
0 8 -4 5 -8 -3 -5 1 -27 9 -49 8 -23 16 -52 19 -65 2 -12 14 -54 26 -93 13
-38 23 -74 25 -80 1 -5 4 -17 7 -25 10 -28 39 -131 43 -151 2 -10 7 -24 10
-29 3 -5 8 -19 10 -30 2 -11 16 -59 30 -105 15 -47 28 -91 29 -97 3 -16 39
-140 65 -223 10 -33 24 -80 31 -105 7 -25 16 -56 21 -70 8 -24 69 -235 74
-255 1 -5 5 -17 8 -25 4 -8 16 -49 27 -90 12 -41 28 -97 36 -125 8 -27 17 -57
19 -65 2 -8 11 -37 19 -65 8 -27 31 -108 51 -180 21 -71 41 -139 45 -150 10
-26 40 -129 40 -135 0 -3 8 -30 18 -60 11 -30 19 -57 19 -60 0 -5 20 -71 44
-147 6 -18 8 -36 6 -40 -6 -9 -2183 -11 -2191 -2 -6 5 26 122 44 164 5 11 14
39 20 62 6 23 23 81 39 130 16 48 43 135 60 193 18 58 39 123 48 145 8 22 14
40 13 40 -1 0 1 7 4 15 2 8 19 62 36 120 17 58 43 141 56 185 14 44 27 88 29
97 2 9 9 26 15 37 6 12 9 21 6 21 -3 0 2 17 11 38 8 20 14 37 13 37 -2 0 14
54 34 120 21 66 58 185 82 265 25 80 49 156 54 170 5 14 18 59 30 100 12 41
25 84 30 95 5 11 20 61 35 110 14 50 29 97 32 105 3 8 8 23 9 33 2 9 13 42 23
72 11 30 17 55 15 55 -3 0 0 9 6 21 6 11 13 28 15 37 2 9 10 36 19 60 8 23 15
45 15 47 0 5 48 162 119 385 20 63 37 120 38 125 1 6 14 46 27 90 14 44 44
141 67 215 23 74 50 159 59 187 9 29 19 53 22 53 3 0 16 -39 29 -87z"/>
</g>
</svg>
